<?xml version="1.0" encoding="UTF-8"?>
<svg width="25px" height="24px" viewBox="0 0 25 24" version="1.1" xmlns="http://www.w3.org/2000/svg" xmlns:xlink="http://www.w3.org/1999/xlink">
    <!-- Generator: Sketch 54.1 (76490) - https://sketchapp.com -->
    <title>Group 10</title>
    <desc>Created with Sketch.</desc>
    <g id="Page-1" stroke="none" stroke-width="1" fill="none" fill-rule="evenodd">
        <g id="Contact-Us" transform="translate(-602.000000, -1505.000000)" fill="#8F999E">
            <g id="Group-7" transform="translate(565.000000, 720.000000)">
                <g id="Group-12" transform="translate(0.000000, 160.000000)">
                    <g id="Group-10" transform="translate(37.000000, 625.000000)">
                        <path d="M24.5791744,16.4375269 C24.2991677,16.1457511 23.9583816,16 23.5577105,16 L17.1424482,16 C16.9322722,16.583278 16.5791196,17.0624012 16.0833589,17.4373696 C15.5873878,17.8123927 15.0341628,18.0000137 14.4233158,18.0000137 L10.5767895,18.0000137 C9.96588981,18.0000137 9.41245438,17.8123379 8.91679893,17.4373696 C8.42093298,17.0624012 8.06799094,16.5833328 7.85765706,16 L1.44228948,16 C1.04172367,16 0.701200645,16.1457511 0.420667764,16.4375269 C0.140187506,16.7289744 0,17.0831446 0,17.4999282 L0,22.5002908 C0,22.9168006 0.140187506,23.2714087 0.420667764,23.5626373 C0.701148022,23.8543036 1.04167105,24 1.44228948,24 L23.557921,24 C23.9583816,24 24.2991677,23.8543036 24.5793322,23.5626373 C24.8599177,23.2710256 25,22.9168006 25,22.5002908 L25,17.4999282 C25,17.0831446 24.8599177,16.7293575 24.5791744,16.4375269 Z M18.9455731,21.7033393 C18.7550255,21.9013047 18.5295888,22.0004242 18.2691579,22.0004242 C18.008727,22.0004242 17.7836061,21.9013047 17.593111,21.7033393 C17.4029317,21.5055929 17.3078421,21.2710667 17.3078421,21.0001984 C17.3078421,20.7293301 17.4029317,20.4946944 17.593111,20.2970575 C17.7836061,20.0993111 18.008727,19.9999726 18.2691579,19.9999726 C18.5295888,19.9999726 18.7549729,20.0992563 18.9455731,20.2970575 C19.1356998,20.4946397 19.2308421,20.7293301 19.2308421,21.0001984 C19.2308421,21.2710667 19.1356998,21.5055382 18.9455731,21.7033393 Z M22.7914679,21.7033393 C22.6012886,21.9013047 22.375852,22.0004242 22.1153684,22.0004242 C21.8549901,22.0004242 21.6297113,21.9013047 21.4393215,21.7033393 C21.2491949,21.5055929 21.1541052,21.2710667 21.1541052,21.0001984 C21.1541052,20.7293301 21.2491949,20.4946944 21.4393215,20.2970575 C21.6296587,20.0993111 21.8549375,19.9999726 22.1153684,19.9999726 C22.3757993,19.9999726 22.601236,20.0992563 22.7914679,20.2970575 C22.9818051,20.4946397 23.0770526,20.7293301 23.0770526,21.0001984 C23.0770526,21.2710667 22.981963,21.5055382 22.7914679,21.7033393 Z" id="Shape" fill-rule="nonzero"></path>
                        <path d="M5.95051683,8.47054279 L9.69302487,8.47054279 L9.69302487,15.0587599 C9.69302487,15.3136169 9.78565436,15.5342731 9.97075974,15.7204712 C10.1559675,15.9065662 10.3752777,16 10.6285879,16 L14.3714544,16 C14.6248157,16 14.8439211,15.9066177 15.0292825,15.7204712 C15.2143367,15.5343246 15.3068637,15.3136684 15.3068637,15.0587599 L15.3068637,8.47054279 L19.0494742,8.47054279 C19.458959,8.47054279 19.7465252,8.27435238 19.9119679,7.88233211 C20.0777179,7.50004668 20.0093595,7.16174828 19.7073023,6.86759143 L13.1577468,0.279477332 C12.9821656,0.0931762797 12.7631626,0 12.4999187,0 C12.2369308,0 12.0176206,0.0931762797 11.8420906,0.279477332 L5.29273989,6.86759143 C4.99052913,7.16174828 4.92237553,7.49984065 5.08797188,7.88233211 C5.25382424,8.27455841 5.54128802,8.47054279 5.95051683,8.47054279 Z" id="Path"></path>
                    </g>
                </g>
            </g>
        </g>
    </g>
</svg>